HIERARCHY
ROOT hip
{
	OFFSET 0.000000 0.000000 0.000000 
	CHANNELS 6 Xposition Yposition Zposition Xrotation Zrotation Yrotation
	JOINT abdomen
	{
		OFFSET 0.000000 3.402643 0.000000 
		CHANNELS 3 Xrotation Zrotation Yrotation
		JOINT chest
		{
			OFFSET 0.000000 8.438565 -0.680529 
			CHANNELS 3 Xrotation Zrotation Yrotation
			JOINT neck
			{
				OFFSET 0.000000 10.207942 -0.272212 
				CHANNELS 3 Xrotation Zrotation Yrotation
				JOINT head
				{
					OFFSET 0.000000 3.130431 0.000000 
					CHANNELS 3 Xrotation Zrotation Yrotation
					End Site
					{
						OFFSET 0.000000 3.130435 0.000000 
					}
				}
			}
			JOINT lCollar
			{
				OFFSET 3.470700 6.669187 -0.816635 
				CHANNELS 3 Yrotation Zrotation Xrotation
				JOINT lShldr
				{
					OFFSET 3.198488 0.000000 0.000000 
					CHANNELS 3 Zrotation Yrotation Xrotation
					JOINT lForeArm
					{
						OFFSET 10.139888 0.000000 0.000000 
						CHANNELS 3 Yrotation Zrotation Xrotation
						JOINT lHand
						{
							OFFSET 8.370511 0.000000 0.000000 
							CHANNELS 3 Zrotation Yrotation Xrotation
							End Site
							{
								OFFSET 4.083176 0.000000 0.000000 
							}
						}
					}
				}
			}
			JOINT rCollar
			{
				OFFSET -3.470700 6.669187 -0.816635 
				CHANNELS 3 Yrotation Zrotation Xrotation
				JOINT rShldr
				{
					OFFSET -3.198488 0.000000 0.000000 
					CHANNELS 3 Zrotation Yrotation Xrotation
					JOINT rForeArm
					{
						OFFSET -10.139888 0.000000 0.000000 
						CHANNELS 3 Yrotation Zrotation Xrotation
						JOINT rHand
						{
							OFFSET -8.370511 0.000000 0.000000 
							CHANNELS 3 Zrotation Yrotation Xrotation
							End Site
							{
								OFFSET -4.083176 0.000000 0.000000 
							}
						}
					}
				}
			}
		}
	}
	JOINT lThigh
	{
		OFFSET 5.308129 -1.633274 1.361059 
		CHANNELS 3 Xrotation Zrotation Yrotation
		JOINT lShin
		{
			OFFSET -2.041588 -20.007561 0.000000 
			CHANNELS 3 Xrotation Zrotation Yrotation
			JOINT lFoot
			{
				OFFSET 0.000000 -19.190928 -1.224953 
				CHANNELS 3 Xrotation Yrotation Zrotation
				End Site
				{
					OFFSET 0.000000 -2.449906 4.627600 
				}
			}
		}
	}
	JOINT rThigh
	{
		OFFSET -5.308129 -1.633274 1.361059 
		CHANNELS 3 Xrotation Zrotation Yrotation
		JOINT rShin
		{
			OFFSET 2.041588 -20.007561 0.000000 
			CHANNELS 3 Xrotation Zrotation Yrotation
			JOINT rFoot
			{
				OFFSET 0.000000 -19.190928 -1.224953 
				CHANNELS 3 Xrotation Yrotation Zrotation
				End Site
				{
					OFFSET 0.000000 -2.449906 4.627600 
				}
			}
		}
	}
}
MOTION
Frames: 9
Frame Time: 0.016667
-1.649913 42.219929 -14.498267 -36.145103 7.739060 -3.567353 0.000000 0.000000 0.000000 -9.887757 -2.564103 5.982352 35.561684 -2.412064 -0.352073 -23.435116 3.819703 5.589118 13.408916 3.755913 23.314680 -64.445549 -0.431704 -18.789778 -31.343916 -32.703857 102.207062 -11.397957 -3.742941 -62.034996 -11.254624 -15.637542 21.246300 66.842247 15.770154 74.614548 33.555008 -25.706348 62.741039 30.970947 5.573893 -80.802338 -1.756642 3.617537 18.242584 51.670765 3.823601 -1.384362 2.914506 -4.160885 -12.177309 -11.196344 -12.357619 -2.213050 67.170059 0.508186 5.356523 3.337593 4.286273 5.046633 
-1.705774 41.322998 -15.343208 -34.245609 7.999847 -3.835196 0.000000 0.000000 0.000000 -12.866531 -2.165581 6.058834 36.209312 -3.525282 -0.450170 -23.625948 4.274683 5.836822 15.021884 3.356154 23.242880 -63.208160 -0.871933 -19.195728 -31.203047 -34.358719 103.399902 -10.798885 -3.726765 -62.055122 -10.802343 -16.587034 21.177277 67.257088 15.933325 74.755936 34.408844 -25.432030 63.689835 31.309956 5.034691 -80.866966 -7.329168 4.700465 18.420763 53.090847 2.456694 -1.764116 3.792078 -2.564554 -10.532007 -17.976280 -11.941951 -1.867193 70.709656 -0.458858 5.452209 5.379156 3.664163 2.325161 
-1.758121 40.249165 -16.257023 -32.703564 8.076102 -4.013329 0.000000 0.000000 0.000000 -15.317261 -1.679782 6.135319 37.039627 -4.326008 -0.499575 -24.097734 4.643036 5.938004 16.360121 2.747189 23.308264 -61.880093 -1.214071 -19.617010 -31.617407 -35.854214 104.578049 -10.502875 -3.732566 -61.986801 -10.791958 -17.122992 21.065458 67.127419 16.304420 74.610146 35.590130 -24.911560 65.269012 31.653965 4.223385 -80.947800 -12.019621 5.779346 18.456177 52.124283 1.384701 -1.963823 4.061601 -1.575059 -10.626725 -24.426672 -11.090653 -1.246695 73.304497 -1.132496 5.524317 8.510429 3.031195 1.457390 
-1.810475 39.175076 -17.170704 -31.171095 8.162088 -4.181797 0.000000 0.000000 0.000000 -17.765432 -1.184434 6.202466 37.872990 -5.116937 -0.569375 -24.578836 5.011333 6.029735 17.698555 2.149662 23.385702 -60.548939 -1.546201 -20.047773 -32.001820 -37.347874 105.770241 -10.214731 -3.736189 -61.930023 -10.780768 -17.660793 20.967709 66.992432 16.693436 74.462479 36.766575 -24.355949 66.837196 31.999693 3.417720 -81.035355 -16.711946 6.858913 18.420923 51.141727 0.337676 -2.168037 4.345319 -0.573898 -10.742024 -30.854803 -10.193979 -0.729010 75.905678 -1.806451 5.611228 11.604421 2.325835 0.651870 
-1.870796 37.787975 -17.920370 -33.664726 7.966872 -3.115679 0.000000 0.000000 0.000000 -15.772756 -1.456352 6.173845 36.781338 -4.667770 -0.529568 -23.295132 4.357927 5.073613 16.135391 3.247296 23.188866 -61.217251 -1.492223 -19.820745 -32.986057 -38.757000 106.337326 -9.309564 -2.166755 -62.251217 -11.202712 -19.422190 20.446592 68.234657 16.255552 75.088570 38.083874 -24.642506 67.692184 32.411545 2.212518 -81.144119 -16.639286 6.629635 18.351357 46.930653 0.777451 -1.840239 3.854640 -1.420339 -10.574015 -32.547894 -10.615201 -0.775944 77.862427 -1.200523 5.888557 12.759980 0.798346 -2.189939 
-1.931114 36.400764 -18.670277 -36.157898 7.817320 -2.049557 0.000000 0.000000 0.000000 -13.779808 -1.728298 6.145370 35.691032 -4.218590 -0.499571 -21.989300 3.720947 4.100902 14.580803 4.359944 23.027370 -61.877247 -1.429937 -19.597815 -33.968632 -40.175106 106.899246 -8.408514 -0.584029 -62.548885 -11.648443 -21.178774 19.901045 69.460815 15.809834 75.695740 39.408180 -24.911558 68.545944 32.824600 0.999418 -81.265457 -16.580961 6.415178 18.269756 42.695309 1.220688 -1.543237 3.388308 -2.252498 -10.386213 -34.236710 -11.025319 -0.801302 79.826462 -0.604931 6.194038 13.833018 -0.798720 -4.969090 
-1.986194 34.891113 -19.708555 -34.340946 7.739837 -1.921137 0.000000 0.000000 0.000000 -16.038832 -1.009531 6.280211 36.570675 -5.556349 -0.588858 -22.610508 4.617913 3.958430 16.046692 2.948624 23.291132 -60.349495 -1.530969 -20.108541 -34.354477 -40.986969 107.928635 -8.081955 2.116916 -62.944851 -11.524075 -22.435947 19.672024 70.634056 15.078893 76.362358 39.586758 -25.327881 67.058090 33.353863 -2.981984 -81.472542 -21.707376 7.284058 17.927166 40.869492 0.908607 -1.528384 4.166348 -1.174713 -12.945338 -39.332260 -10.028701 -0.180037 75.782509 -1.434912 5.614946 16.812927 1.522451 -4.453860 
-2.041306 33.381287 -20.746819 -32.533806 7.652545 -1.792720 0.000000 0.000000 0.000000 -18.284542 -0.291151 6.386785 37.446999 -6.884259 -0.698895 -23.228294 5.515286 3.797441 17.524111 1.540706 23.590136 -58.812191 -1.616846 -20.614050 -34.739883 -41.799927 108.947945 -7.781123 4.820158 -63.330738 -11.397618 -23.700447 19.454029 71.783806 14.349044 77.003036 39.753082 -25.752771 65.561546 33.891090 -6.961854 -81.718666 -26.870199 8.111769 17.531525 39.041920 0.602643 -1.510886 5.018902 -0.140131 -15.457116 -44.401291 -8.974036 0.349661 71.749222 -2.322920 5.134275 19.769739 3.821411 -4.018643 
-2.134219 31.668074 -21.770142 -31.041243 7.407908 -1.939242 0.000000 0.000000 0.000000 -20.136282 0.261990 6.474720 38.228188 -7.714158 -0.769244 -24.104658 5.941792 4.114257 18.627544 0.204138 23.979258 -57.570961 -0.281606 -21.191404 -34.998550 -41.897247 110.667397 -5.121208 8.788672 -63.726006 -11.192098 -23.479359 19.578114 71.067352 12.762995 77.085777 41.755188 -26.066429 64.740623 32.618004 -13.718102 -81.365700 -31.462173 9.246161 17.141541 37.321644 0.173271 -1.506973 5.210132 1.213144 -16.633324 -48.857838 -7.713962 1.058802 67.806999 -2.538692 4.704401 20.977373 5.508635 -3.130797 
